<?xml version="1.0" encoding="UTF-8"?>
<svg xmlns="http://www.w3.org/2000/svg" xmlns:xlink="http://www.w3.org/1999/xlink" width="901pt" height="183pt" viewBox="0 0 901 183" version="1.1">
<g id="surface1">
<path style=" stroke:none;fill-rule:evenodd;fill:rgb(61.131287%,36.083984%,56.054688%);fill-opacity:1;" d="M 2.464844 17.9375 C 6.644531 7.816406 17.136719 0.664063 28.125 0.6875 C 110.796875 0.65625 193.464844 0.695313 276.136719 0.664063 C 283.304688 0.507813 290.484375 3.175781 295.777344 8.027344 C 301.835938 13.445313 305.285156 21.546875 305.117188 29.664063 C 305.085938 61.355469 305.175781 93.035156 305.074219 124.726563 C 305.015625 139.046875 292.507813 151.824219 278.195313 152.214844 C 248.046875 152.34375 217.886719 152.226563 187.734375 152.277344 C 191.785156 162.253906 195.886719 172.226563 199.9375 182.214844 C 181.976563 172.324219 164.195313 162.085938 146.136719 152.40625 C 106.476563 152.054688 66.785156 152.433594 27.117188 152.207031 C 12.828125 151.804688 0.367188 139.035156 0.285156 124.746094 C 0.167969 93.726563 0.285156 62.695313 0.226563 31.664063 C 0.117188 27.007813 0.554688 22.246094 2.464844 17.9375 "/>
<path style=" stroke:none;fill-rule:evenodd;fill:rgb(100%,100%,100%);fill-opacity:1;" d="M 123.726563 20.246094 C 128.304688 15.375 136.996094 16.957031 140.375 22.464844 C 142.207031 25.355469 142.367188 29.214844 140.894531 32.296875 C 134.527344 44.824219 131.867188 58.785156 129.414063 72.507813 C 126.515625 90.394531 124.105469 108.515625 125.046875 126.675781 C 125.304688 131.304688 123.066406 136.925781 118.097656 138.003906 C 113.394531 139.054688 109.117188 135.976563 106.164063 132.65625 C 92.664063 118.136719 85.027344 99.324219 79.515625 80.554688 C 73.945313 91.546875 68.355469 102.535156 62.957031 113.617188 C 59.175781 121.105469 55.1875 128.746094 49.148438 134.695313 C 46.597656 137.226563 42.285156 139.515625 38.996094 136.914063 C 34.046875 132.585938 32.828125 125.683594 30.726563 119.753906 C 22.757813 92.265625 18.234375 63.9375 13.605469 35.734375 C 12.546875 31.035156 14.515625 25.40625 19.207031 23.527344 C 22.996094 22.105469 27.847656 21.90625 31.078125 24.695313 C 33.328125 26.703125 33.945313 29.816406 34.367188 32.65625 C 37.617188 54.484375 41.484375 76.246094 46.757813 97.683594 C 55.785156 80.566406 64.765625 63.414063 73.765625 46.277344 C 75.105469 43.765625 76.707031 41.246094 79.167969 39.6875 C 82.457031 37.574219 87.335938 37.726563 90.085938 40.675781 C 92.394531 43.097656 93.164063 46.464844 93.804688 49.644531 C 96.496094 63.816406 100.136719 77.847656 105.425781 91.277344 C 107.707031 71.035156 110.496094 50.546875 117.886719 31.4375 C 119.554688 27.585938 121.027344 23.515625 123.726563 20.246094 Z M 174.484375 31.085938 C 184.207031 29.894531 194.695313 33.125 201.316406 40.515625 C 206.714844 46.625 209.746094 54.554688 210.765625 62.574219 C 212.414063 76.296875 209.945313 90.554688 203.347656 102.726563 C 199.617188 109.664063 194.734375 116.316406 187.855469 120.394531 C 177.777344 126.515625 164.257813 125.765625 154.515625 119.304688 C 146.734375 113.976563 142.367188 104.894531 140.585938 95.84375 C 137.007813 75.367188 143.125 52.535156 158.636719 38.234375 C 163.085938 34.394531 168.636719 31.796875 174.484375 31.085938 Z M 176.515625 52.15625 C 171.847656 53.707031 168.894531 57.984375 166.386719 61.964844 C 160.097656 72.097656 158.277344 85.457031 163.335938 96.476563 C 164.664063 99.375 166.804688 102.425781 170.175781 103.035156 C 173.757813 103.625 177.085938 101.574219 179.695313 99.34375 C 185.445313 94.414063 188.304688 87.007813 189.695313 79.734375 C 191.257813 71.457031 190.457031 62.285156 185.597656 55.195313 C 183.644531 52.304688 179.816406 50.996094 176.515625 52.15625 Z M 252.476563 31.105469 C 261.976563 29.925781 272.285156 32.855469 278.9375 39.945313 C 284.886719 46.367188 288.105469 54.957031 289.015625 63.585938 C 290.414063 76.847656 287.976563 90.554688 281.6875 102.34375 C 277.90625 109.476563 272.914063 116.335938 265.835938 120.484375 C 256.15625 126.285156 243.375 125.753906 233.785156 120.035156 C 227.304688 116.136719 222.996094 109.476563 220.515625 102.476563 C 213.714844 81.066406 219.457031 55.875 235.125 39.714844 C 239.824219 35.136719 245.925781 31.925781 252.476563 31.105469 Z M 254.535156 52.1875 C 249.4375 54.007813 246.375 58.875 243.726563 63.296875 C 237.984375 73.414063 236.574219 86.445313 241.765625 97.074219 C 243.164063 100.015625 245.644531 102.976563 249.15625 103.136719 C 252.976563 103.277344 256.265625 100.855469 258.914063 98.355469 C 264.6875 92.664063 267.324219 84.535156 268.246094 76.644531 C 269.195313 69.257813 267.964844 61.316406 263.664063 55.117188 C 261.695313 52.226563 257.824219 50.996094 254.535156 52.1875 "/>
<path style=" stroke:none;fill-rule:evenodd;fill:rgb(0%,0%,0%);fill-opacity:1;" d="M 356.464844 33.914063 C 364.757813 32.085938 373.476563 32.335938 381.726563 34.253906 C 381.757813 41.007813 381.726563 47.757813 381.746094 54.507813 C 374.976563 52.875 367.40625 51.347656 360.835938 54.515625 C 352.984375 58.355469 348.695313 67.207031 348.617188 75.707031 C 348.175781 84.175781 350.996094 93.605469 358.496094 98.363281 C 365.386719 102.925781 374.1875 101.957031 381.746094 99.785156 C 381.726563 106.535156 381.746094 113.285156 381.726563 120.035156 C 371.726563 122.933594 360.796875 122.574219 351.035156 118.945313 C 339.316406 114.546875 329.984375 104.425781 326.414063 92.433594 C 323.714844 83.335938 323.367188 73.476563 325.554688 64.226563 C 329.085938 49.386719 341.617188 37.226563 356.464844 33.914063 Z M 417.386719 32.914063 C 427.585938 31.773438 438.6875 33.347656 446.925781 39.886719 C 454.875 46.054688 458.847656 56.007813 460.226563 65.726563 C 461.625 76.367188 461.316406 87.4375 458.027344 97.714844 C 455.226563 106.445313 449.367188 114.515625 440.925781 118.484375 C 432.347656 122.527344 422.347656 122.796875 413.214844 120.734375 C 404.757813 118.835938 397.304688 113.226563 393.105469 105.65625 C 387.296875 95.445313 386.234375 83.324219 386.6875 71.804688 C 387.164063 61.867188 389.675781 51.507813 396.355469 43.847656 C 401.597656 37.617188 409.355469 33.824219 417.386719 32.914063 Z M 420.527344 52.277344 C 416.144531 53.386719 413.664063 57.707031 412.566406 61.777344 C 410.394531 69.824219 410.765625 78.296875 411.316406 86.535156 C 411.847656 90.984375 412.324219 95.90625 415.496094 99.375 C 419.707031 104.164063 428.164063 103.515625 432.035156 98.613281 C 434.597656 95.476563 435.257813 91.335938 435.847656 87.457031 C 436.664063 80.515625 436.875 73.453125 435.816406 66.535156 C 435.074219 62.386719 433.925781 58.003906 430.875 54.90625 C 428.257813 52.1875 424.117188 51.355469 420.527344 52.277344 Z M 820.566406 34.265625 C 829.226563 31.996094 838.40625 32.324219 847.113281 34.1875 C 847.316406 40.953125 847.15625 47.734375 847.203125 54.507813 C 840.574219 52.914063 833.253906 51.425781 826.765625 54.285156 C 819.304688 57.6875 814.785156 65.6875 814.203125 73.675781 C 813.285156 82.636719 815.753906 92.933594 823.65625 98.175781 C 830.574219 102.933594 839.546875 102.003906 847.203125 99.785156 C 847.113281 106.585938 847.40625 113.394531 847.046875 120.183594 C 836.386719 122.957031 824.773438 122.585938 814.613281 118.175781 C 803.453125 113.316406 794.804688 103.234375 791.59375 91.515625 C 789.136719 82.515625 788.855469 72.835938 791.125 63.765625 C 794.675781 49.585938 806.464844 37.945313 820.566406 34.265625 Z M 473.6875 34.9375 C 483.324219 34.914063 492.976563 34.914063 502.625 34.9375 C 506.117188 50.574219 509.4375 66.265625 512.335938 82.027344 C 515.097656 66.195313 518.804688 50.554688 522.535156 34.9375 C 532.425781 34.914063 542.316406 34.925781 552.214844 34.925781 C 556.054688 63.234375 559.875 91.546875 563.6875 119.855469 C 556.117188 119.863281 548.554688 119.867188 540.984375 119.855469 C 538.886719 100.464844 537.023438 81.054688 534.804688 61.675781 C 530.214844 81.097656 525.375 100.457031 520.695313 119.855469 C 515.535156 119.875 510.363281 119.867188 505.203125 119.855469 C 500.257813 100.433594 495.386719 80.984375 490.394531 61.574219 C 488.445313 81.007813 486.515625 100.433594 484.546875 119.867188 C 477.316406 119.855469 470.074219 119.875 462.847656 119.855469 C 466.445313 91.546875 470.074219 63.246094 473.6875 34.9375 Z M 577.484375 34.925781 C 587.136719 34.9375 596.785156 34.90625 606.445313 34.9375 C 609.925781 50.554688 613.214844 66.214844 616.136719 81.957031 C 618.9375 66.15625 622.605469 50.527344 626.34375 34.925781 C 636.195313 34.925781 646.054688 34.925781 655.90625 34.925781 C 659.734375 63.234375 663.554688 91.546875 667.363281 119.855469 C 659.804688 119.875 652.246094 119.84375 644.683594 119.875 C 642.585938 100.476563 640.625 81.074219 638.554688 61.675781 C 633.835938 81.066406 629.203125 100.476563 624.484375 119.867188 C 619.324219 119.855469 614.175781 119.867188 609.023438 119.867188 C 604.074219 100.425781 599.15625 80.976563 594.214844 61.527344 C 592.234375 80.964844 590.324219 100.414063 588.355469 119.855469 C 581.117188 119.863281 573.886719 119.867188 566.644531 119.855469 C 570.257813 91.546875 573.875 63.234375 577.484375 34.925781 Z M 673.824219 35.203125 C 689.316406 34.855469 704.824219 35.15625 720.324219 35.054688 C 720.355469 41.085938 720.304688 47.105469 720.355469 53.136719 C 712.535156 53.226563 704.714844 53.144531 696.894531 53.1875 C 696.886719 58.367188 696.886719 63.546875 696.894531 68.726563 C 703.664063 68.746094 710.433594 68.726563 717.203125 68.734375 C 717.207031 74.605469 717.214844 80.464844 717.203125 86.324219 C 710.4375 86.335938 703.664063 86.316406 696.894531 86.335938 C 696.886719 91.515625 696.886719 96.707031 696.894531 101.886719 C 704.746094 101.90625 712.605469 101.886719 720.453125 101.894531 C 720.453125 107.925781 720.464844 113.957031 720.453125 119.984375 C 704.953125 119.996094 689.453125 119.996094 673.964844 119.984375 C 673.867188 91.726563 674.136719 63.457031 673.824219 35.207031 Z M 727.023438 34.925781 C 736.726563 34.964844 746.425781 34.847656 756.125 34.984375 C 765.265625 35.273438 774.953125 37.554688 781.773438 44.027344 C 787.9375 49.757813 790.066406 59.105469 787.675781 67.074219 C 785.785156 73.554688 780.925781 78.816406 774.855469 81.65625 C 780.925781 94.40625 787.054688 107.113281 793.125 119.855469 C 785.054688 119.863281 776.984375 119.855469 768.925781 119.867188 C 762.597656 106.867188 756.464844 93.753906 750.054688 80.796875 C 749.894531 93.816406 750.035156 106.835938 749.984375 119.855469 C 742.324219 119.863281 734.675781 119.867188 727.023438 119.855469 C 727.015625 91.546875 727.015625 63.234375 727.023438 34.925781 Z M 749.875 51.257813 C 749.855469 58.003906 749.855469 64.765625 749.875 71.527344 C 754.023438 71.234375 758.535156 71.074219 762.066406 68.566406 C 766.125 65.636719 765.683594 59.367188 763.125 55.585938 C 759.953125 51.703125 754.445313 51.625 749.875 51.257813 Z M 853.636719 34.945313 C 869.105469 34.90625 884.574219 34.945313 900.046875 34.925781 C 900.054688 40.964844 900.046875 47.007813 900.046875 53.046875 C 892.195313 53.054688 884.34375 53.046875 876.496094 53.054688 C 876.484375 58.226563 876.484375 63.394531 876.484375 68.574219 C 883.253906 68.597656 890.023438 68.566406 896.796875 68.585938 C 896.796875 74.457031 896.804688 80.335938 896.796875 86.207031 C 890.023438 86.207031 883.265625 86.207031 876.503906 86.207031 C 876.476563 91.386719 876.484375 96.566406 876.496094 101.753906 C 884.375 101.777344 892.253906 101.753906 900.144531 101.765625 C 900.144531 107.796875 900.144531 113.824219 900.136719 119.867188 C 884.644531 119.863281 869.144531 119.867188 853.65625 119.855469 C 853.625 91.554688 853.65625 63.246094 853.636719 34.945313 "/>
</g>
</svg>
