<svg width="183" height="96" viewBox="0 0 183 96" fill="none" xmlns="http://www.w3.org/2000/svg">
<path d="M31.61 31.9977C14.1166 31.7888 0 17.5429 0 0H107C133.51 0 155 21.4903 155 48C155 64.498 146.677 79.0521 134 87.6919V96H103C85.6614 96 71.5436 82.2104 71.0153 65H71C51.2958 65 34.9192 50.7526 31.61 31.9977Z" fill="#004F58"/>
<path d="M28 0C28 17.5429 42.1166 31.7888 59.61 31.9977C62.9192 50.7526 79.2958 65 99 65C99.0051 65 99.0102 65 99.0153 65C99.5436 82.2104 113.661 96 131 96H135C161.51 96 183 74.5097 183 48C183 21.4903 161.51 0 135 0H28Z" fill="#009AAB"/>
</svg>
