<svg width="771" height="176" viewBox="0 0 771 176" fill="none" xmlns="http://www.w3.org/2000/svg">
<path d="M228.072 141.728C220.104 141.728 212.376 140.672 204.888 138.56C197.496 136.352 191.544 133.52 187.032 130.064L194.952 112.496C199.272 115.664 204.408 118.208 210.36 120.128C216.312 122.048 222.264 123.008 228.216 123.008C234.84 123.008 239.736 122.048 242.904 120.128C246.072 118.112 247.656 115.472 247.656 112.208C247.656 109.808 246.696 107.84 244.776 106.304C242.952 104.672 240.552 103.376 237.576 102.416C234.696 101.456 230.76 100.4 225.768 99.248C218.088 97.424 211.8 95.6 206.904 93.776C202.008 91.952 197.784 89.024 194.232 84.992C190.776 80.96 189.048 75.584 189.048 68.864C189.048 63.008 190.632 57.728 193.8 53.024C196.968 48.224 201.72 44.432 208.056 41.648C214.488 38.864 222.312 37.472 231.528 37.472C237.96 37.472 244.248 38.24 250.392 39.776C256.536 41.312 261.912 43.52 266.52 46.4L259.32 64.112C250.008 58.832 240.696 56.192 231.384 56.192C224.856 56.192 220.008 57.248 216.84 59.36C213.768 61.472 212.232 64.256 212.232 67.712C212.232 71.168 214.008 73.76 217.56 75.488C221.208 77.12 226.728 78.752 234.12 80.384C241.8 82.208 248.088 84.032 252.984 85.856C257.88 87.68 262.056 90.56 265.512 94.496C269.064 98.432 270.84 103.76 270.84 110.48C270.84 116.24 269.208 121.52 265.944 126.32C262.776 131.024 257.976 134.768 251.544 137.552C245.112 140.336 237.288 141.728 228.072 141.728ZM408.206 62.528L380.126 140H358.526L341.102 91.904L323.102 140H301.502L273.566 62.528H294.734L313.022 114.944L332.03 62.528H351.038L369.47 114.944L388.334 62.528H408.206ZM453.404 141.152C445.244 141.152 437.9 139.472 431.372 136.112C424.94 132.656 419.9 127.904 416.252 121.856C412.604 115.808 410.78 108.944 410.78 101.264C410.78 93.584 412.604 86.72 416.252 80.672C419.9 74.624 424.94 69.92 431.372 66.56C437.9 63.104 445.244 61.376 453.404 61.376C461.564 61.376 468.86 63.104 475.292 66.56C481.724 69.92 486.764 74.624 490.412 80.672C494.06 86.72 495.884 93.584 495.884 101.264C495.884 108.944 494.06 115.808 490.412 121.856C486.764 127.904 481.724 132.656 475.292 136.112C468.86 139.472 461.564 141.152 453.404 141.152ZM453.404 122.72C459.164 122.72 463.868 120.8 467.516 116.96C471.26 113.024 473.132 107.792 473.132 101.264C473.132 94.736 471.26 89.552 467.516 85.712C463.868 81.776 459.164 79.808 453.404 79.808C447.644 79.808 442.892 81.776 439.148 85.712C435.404 89.552 433.532 94.736 433.532 101.264C433.532 107.792 435.404 113.024 439.148 116.96C442.892 120.8 447.644 122.72 453.404 122.72ZM547.763 141.152C539.603 141.152 532.259 139.472 525.731 136.112C519.299 132.656 514.259 127.904 510.611 121.856C506.963 115.808 505.139 108.944 505.139 101.264C505.139 93.584 506.963 86.72 510.611 80.672C514.259 74.624 519.299 69.92 525.731 66.56C532.259 63.104 539.603 61.376 547.763 61.376C555.923 61.376 563.219 63.104 569.651 66.56C576.083 69.92 581.123 74.624 584.771 80.672C588.419 86.72 590.243 93.584 590.243 101.264C590.243 108.944 588.419 115.808 584.771 121.856C581.123 127.904 576.083 132.656 569.651 136.112C563.219 139.472 555.923 141.152 547.763 141.152ZM547.763 122.72C553.523 122.72 558.227 120.8 561.875 116.96C565.619 113.024 567.491 107.792 567.491 101.264C567.491 94.736 565.619 89.552 561.875 85.712C558.227 81.776 553.523 79.808 547.763 79.808C542.003 79.808 537.251 81.776 533.507 85.712C529.763 89.552 527.891 94.736 527.891 101.264C527.891 107.792 529.763 113.024 533.507 116.96C537.251 120.8 542.003 122.72 547.763 122.72ZM631.323 141.152C624.891 141.152 618.603 140.384 612.459 138.848C606.315 137.216 601.419 135.2 597.771 132.8L605.259 116.672C608.715 118.88 612.891 120.704 617.787 122.144C622.683 123.488 627.483 124.16 632.187 124.16C641.691 124.16 646.443 121.808 646.443 117.104C646.443 114.896 645.147 113.312 642.555 112.352C639.963 111.392 635.979 110.576 630.603 109.904C624.267 108.944 619.035 107.84 614.907 106.592C610.779 105.344 607.179 103.136 604.107 99.968C601.131 96.8 599.643 92.288 599.643 86.432C599.643 81.536 601.035 77.216 603.819 73.472C606.699 69.632 610.827 66.656 616.203 64.544C621.675 62.432 628.107 61.376 635.499 61.376C640.971 61.376 646.395 62 651.771 63.248C657.243 64.4 661.755 66.032 665.307 68.144L657.819 84.128C651.003 80.288 643.563 78.368 635.499 78.368C630.699 78.368 627.099 79.04 624.699 80.384C622.299 81.728 621.099 83.456 621.099 85.568C621.099 87.968 622.395 89.648 624.987 90.608C627.579 91.568 631.707 92.48 637.371 93.344C643.707 94.4 648.891 95.552 652.923 96.8C656.955 97.952 660.459 100.112 663.435 103.28C666.411 106.448 667.899 110.864 667.899 116.528C667.899 121.328 666.459 125.6 663.579 129.344C660.699 133.088 656.475 136.016 650.907 138.128C645.435 140.144 638.907 141.152 631.323 141.152ZM728.847 61.376C738.447 61.376 746.175 64.256 752.031 70.016C757.983 75.776 760.959 84.32 760.959 95.648V140H738.495V99.104C738.495 92.96 737.151 88.4 734.463 85.424C731.775 82.352 727.887 80.816 722.799 80.816C717.135 80.816 712.623 82.592 709.263 86.144C705.903 89.6 704.223 94.784 704.223 101.696V140H681.759V33.152H704.223V70.592C707.199 67.616 710.799 65.36 715.023 63.824C719.247 62.192 723.855 61.376 728.847 61.376Z" fill="black"/>
<path d="M31.61 75.9977C14.1166 75.7888 0 61.5429 0 44H107C133.51 44 155 65.4903 155 92C155 108.498 146.677 123.052 134 131.692V140H103C85.6614 140 71.5436 126.21 71.0153 109H71C51.2958 109 34.9192 94.7526 31.61 75.9977Z" fill="#C4C4C4"/>
<path d="M28 44C28 61.5429 42.1166 75.7888 59.61 75.9977C62.9192 94.7526 79.2958 109 99 109C99.0051 109 99.0102 109 99.0153 109C99.5436 126.21 113.661 140 131 140H135C161.51 140 183 118.51 183 92C183 65.4903 161.51 44 135 44H28Z" fill="black"/>
</svg>
