<svg width="814" height="176" viewBox="0 0 814 176" fill="none" xmlns="http://www.w3.org/2000/svg">
<path d="M235.072 141.728C227.104 141.728 219.376 140.672 211.888 138.56C204.496 136.352 198.544 133.52 194.032 130.064L201.952 112.496C206.272 115.664 211.408 118.208 217.36 120.128C223.312 122.048 229.264 123.008 235.216 123.008C241.84 123.008 246.736 122.048 249.904 120.128C253.072 118.112 254.656 115.472 254.656 112.208C254.656 109.808 253.696 107.84 251.776 106.304C249.952 104.672 247.552 103.376 244.576 102.416C241.696 101.456 237.76 100.4 232.768 99.248C225.088 97.424 218.8 95.6 213.904 93.776C209.008 91.952 204.784 89.024 201.232 84.992C197.776 80.96 196.048 75.584 196.048 68.864C196.048 63.008 197.632 57.728 200.8 53.024C203.968 48.224 208.72 44.432 215.056 41.648C221.488 38.864 229.312 37.472 238.528 37.472C244.96 37.472 251.248 38.24 257.392 39.776C263.536 41.312 268.912 43.52 273.52 46.4L266.32 64.112C257.008 58.832 247.696 56.192 238.384 56.192C231.856 56.192 227.008 57.248 223.84 59.36C220.768 61.472 219.232 64.256 219.232 67.712C219.232 71.168 221.008 73.76 224.56 75.488C228.208 77.12 233.728 78.752 241.12 80.384C248.8 82.208 255.088 84.032 259.984 85.856C264.88 87.68 269.056 90.56 272.512 94.496C276.064 98.432 277.84 103.76 277.84 110.48C277.84 116.24 276.208 121.52 272.944 126.32C269.776 131.024 264.976 134.768 258.544 137.552C252.112 140.336 244.288 141.728 235.072 141.728ZM415.206 62.528L387.126 140H365.526L348.102 91.904L330.102 140H308.502L280.566 62.528H301.734L320.022 114.944L339.03 62.528H358.038L376.47 114.944L395.334 62.528H415.206ZM460.404 141.152C452.244 141.152 444.9 139.472 438.372 136.112C431.94 132.656 426.9 127.904 423.252 121.856C419.604 115.808 417.78 108.944 417.78 101.264C417.78 93.584 419.604 86.72 423.252 80.672C426.9 74.624 431.94 69.92 438.372 66.56C444.9 63.104 452.244 61.376 460.404 61.376C468.564 61.376 475.86 63.104 482.292 66.56C488.724 69.92 493.764 74.624 497.412 80.672C501.06 86.72 502.884 93.584 502.884 101.264C502.884 108.944 501.06 115.808 497.412 121.856C493.764 127.904 488.724 132.656 482.292 136.112C475.86 139.472 468.564 141.152 460.404 141.152ZM460.404 122.72C466.164 122.72 470.868 120.8 474.516 116.96C478.26 113.024 480.132 107.792 480.132 101.264C480.132 94.736 478.26 89.552 474.516 85.712C470.868 81.776 466.164 79.808 460.404 79.808C454.644 79.808 449.892 81.776 446.148 85.712C442.404 89.552 440.532 94.736 440.532 101.264C440.532 107.792 442.404 113.024 446.148 116.96C449.892 120.8 454.644 122.72 460.404 122.72ZM554.763 141.152C546.603 141.152 539.259 139.472 532.731 136.112C526.299 132.656 521.259 127.904 517.611 121.856C513.963 115.808 512.139 108.944 512.139 101.264C512.139 93.584 513.963 86.72 517.611 80.672C521.259 74.624 526.299 69.92 532.731 66.56C539.259 63.104 546.603 61.376 554.763 61.376C562.923 61.376 570.219 63.104 576.651 66.56C583.083 69.92 588.123 74.624 591.771 80.672C595.419 86.72 597.243 93.584 597.243 101.264C597.243 108.944 595.419 115.808 591.771 121.856C588.123 127.904 583.083 132.656 576.651 136.112C570.219 139.472 562.923 141.152 554.763 141.152ZM554.763 122.72C560.523 122.72 565.227 120.8 568.875 116.96C572.619 113.024 574.491 107.792 574.491 101.264C574.491 94.736 572.619 89.552 568.875 85.712C565.227 81.776 560.523 79.808 554.763 79.808C549.003 79.808 544.251 81.776 540.507 85.712C536.763 89.552 534.891 94.736 534.891 101.264C534.891 107.792 536.763 113.024 540.507 116.96C544.251 120.8 549.003 122.72 554.763 122.72ZM662.227 136.256C660.019 137.888 657.283 139.136 654.019 140C650.851 140.768 647.491 141.152 643.939 141.152C634.723 141.152 627.571 138.8 622.483 134.096C617.491 129.392 614.995 122.48 614.995 113.36V81.536H603.043V64.256H614.995V45.392H637.459V64.256H656.755V81.536H637.459V113.072C637.459 116.336 638.275 118.88 639.907 120.704C641.635 122.432 644.035 123.296 647.107 123.296C650.659 123.296 653.683 122.336 656.179 120.416L662.227 136.256ZM723.117 136.256C720.909 137.888 718.173 139.136 714.909 140C711.741 140.768 708.381 141.152 704.829 141.152C695.613 141.152 688.461 138.8 683.373 134.096C678.381 129.392 675.885 122.48 675.885 113.36V81.536H663.933V64.256H675.885V45.392H698.349V64.256H717.645V81.536H698.349V113.072C698.349 116.336 699.165 118.88 700.797 120.704C702.525 122.432 704.925 123.296 707.997 123.296C711.549 123.296 714.573 122.336 717.069 120.416L723.117 136.256ZM809.225 101.552C809.225 101.84 809.081 103.856 808.793 107.6H750.185C751.241 112.4 753.737 116.192 757.673 118.976C761.609 121.76 766.505 123.152 772.361 123.152C776.393 123.152 779.945 122.576 783.017 121.424C786.185 120.176 789.113 118.256 791.801 115.664L803.753 128.624C796.457 136.976 785.801 141.152 771.785 141.152C763.049 141.152 755.321 139.472 748.601 136.112C741.881 132.656 736.697 127.904 733.049 121.856C729.401 115.808 727.577 108.944 727.577 101.264C727.577 93.68 729.353 86.864 732.905 80.816C736.553 74.672 741.497 69.92 747.737 66.56C754.073 63.104 761.129 61.376 768.905 61.376C776.489 61.376 783.353 63.008 789.497 66.272C795.641 69.536 800.441 74.24 803.897 80.384C807.449 86.432 809.225 93.488 809.225 101.552ZM769.049 78.368C763.961 78.368 759.689 79.808 756.233 82.688C752.777 85.568 750.665 89.504 749.897 94.496H788.057C787.289 89.6 785.177 85.712 781.721 82.832C778.265 79.856 774.041 78.368 769.049 78.368Z" fill="black"/>
<path d="M31.61 75.9977C14.1166 75.7888 0 61.5429 0 44H107C133.51 44 155 65.4903 155 92C155 108.498 146.677 123.052 134 131.692V140H103C85.6614 140 71.5436 126.21 71.0153 109H71C51.2958 109 34.9192 94.7526 31.61 75.9977Z" fill="#C4C4C4"/>
<path d="M28 44C28 61.5429 42.1166 75.7888 59.61 75.9977C62.9192 94.7526 79.2958 109 99 109C99.0051 109 99.0102 109 99.0153 109C99.5436 126.21 113.661 140 131 140H135C161.51 140 183 118.51 183 92C183 65.4903 161.51 44 135 44H28Z" fill="black"/>
</svg>
